<svg width="44" height="44" viewBox="0 0 44 44" fill="none" xmlns="http://www.w3.org/2000/svg">
<path d="M43.8467 10.5965C43.6222 9.71636 42.997 8.98196 42.1776 8.60557L42.3233 8.27174C42.5175 7.82256 42.5236 7.3249 42.3354 6.86967C42.2019 6.53584 41.9772 6.25666 41.692 6.05632L42.4568 4.24147C42.4568 4.24147 42.4568 4.24147 42.4568 4.23543C43.0151 2.89406 42.3778 1.33409 41.0425 0.763639C39.7072 0.193069 38.1412 0.812243 37.5585 2.1414V2.14745V2.15349L36.7998 3.93799C35.9864 3.79834 35.1489 4.22938 34.8089 5.02448L21.6805 35.6399C21.6137 35.7916 21.5894 35.9555 21.6015 36.1194L21.905 40.2589C21.3163 39.4638 20.7032 38.6625 19.981 37.9645C19.0159 37.0358 17.5228 35.8522 15.7201 36.265C14.4272 36.5624 13.5593 37.7217 12.7884 38.7475C12.5456 39.0692 12.315 39.3788 12.1025 39.6093C10.8279 40.9993 9.89314 40.89 9.29222 40.6898C8.76421 40.5077 8.22399 40.2042 7.71412 39.8097C8.53352 39.2331 9.33466 38.6322 10.1116 37.9948C10.8521 37.3879 11.7018 36.6352 12.3756 35.6823C12.8248 35.045 13.3407 34.1892 13.3285 33.2059C13.3225 32.2287 12.8612 31.2393 12.1025 30.5656C10.7248 29.3456 8.9706 29.1089 7.16785 29.8919C5.20126 30.7416 3.81745 32.5565 3.56246 34.6262C3.36211 36.2467 3.91455 38.0312 5.07987 39.5426C3.78699 40.3863 2.46992 41.1935 1.171 41.9825C0.770423 42.2253 0.642985 42.7473 0.88577 43.1479C1.12856 43.5484 1.65052 43.6759 2.05109 43.4331C3.44711 42.5834 4.86139 41.7215 6.25124 40.8049C7.02204 41.4846 7.87795 42.0006 8.73979 42.298C10.3603 42.8503 11.9143 42.3284 13.3527 40.7563C13.6198 40.4649 13.8747 40.125 14.1418 39.7731C14.7366 38.984 15.4104 38.0856 16.0962 37.9279C16.8669 37.7518 17.6986 38.1403 18.7911 39.1964C19.5255 39.9005 20.1447 40.7502 20.8062 41.6486C21.2735 42.292 21.7652 42.9536 22.2993 43.5666C22.4693 43.7608 22.6999 43.858 22.9366 43.858C23.1004 43.858 23.2583 43.8094 23.4039 43.7183C23.5313 43.6819 23.6527 43.6152 23.762 43.5302L28.9759 39.2875L28.9819 39.2814C29.0062 39.2632 29.0305 39.239 29.0487 39.2207C29.0487 39.2207 29.0487 39.2207 29.0547 39.2147C29.079 39.1904 29.0972 39.1661 29.1215 39.1419C29.1275 39.1359 29.1336 39.1298 29.1336 39.1237C29.1456 39.1054 29.1579 39.0873 29.176 39.069C29.182 39.0569 29.1881 39.0507 29.1943 39.0387C29.2063 39.0204 29.2125 39.0023 29.2246 38.984C29.2306 38.9719 29.2367 38.9657 29.2429 38.9537C29.2549 38.9294 29.2672 38.905 29.2792 38.8809V38.8748V38.8688L41.516 10.1655C41.8559 10.3355 42.1108 10.6511 42.2079 11.0213C42.3111 11.4159 42.22 11.8407 41.9712 12.1625C41.9652 12.1685 41.9591 12.1746 41.9591 12.1807C41.9531 12.1868 41.947 12.1928 41.9409 12.199C40.4295 14.3841 39.5313 16.3688 39.1245 18.4447C38.9607 19.2762 38.8696 20.1624 38.8331 21.2367C38.821 21.704 39.1852 22.0985 39.6525 22.1108C39.6646 22.1108 39.6708 22.1108 39.6829 22.1108C40.1381 22.1108 40.5144 21.7466 40.5326 21.2853C40.563 20.3021 40.648 19.5008 40.7937 18.7664C41.1518 16.9273 41.9652 15.1489 43.3369 13.158C43.8831 12.4417 44.0774 11.4827 43.8467 10.5965ZM5.23777 34.8386C5.41986 33.3637 6.41531 32.0648 7.83563 31.4517C8.21806 31.2879 8.69142 31.1482 9.19525 31.1482C9.77187 31.1482 10.3849 31.3243 10.9737 31.8462C11.3743 32.1983 11.6231 32.7263 11.6293 33.224C11.6353 33.7278 11.2894 34.2802 10.9859 34.7111C10.4276 35.5001 9.68699 36.1495 9.03154 36.6897C8.21214 37.3574 7.36239 37.9947 6.48833 38.6017C5.53521 37.4122 5.08603 36.0465 5.23777 34.8386ZM23.993 40.6715L23.8109 38.189C24.4664 38.5956 25.1826 38.9053 25.9292 39.0995L23.993 40.6715ZM27.562 37.6367C26.1416 37.5639 24.7882 36.9873 23.7563 36.01L32.0718 16.6175L35.8289 18.226L27.562 37.6367ZM36.4964 16.6723L32.7393 15.0638L36.6056 6.05039L40.3324 7.67094L36.4964 16.6723ZM40.557 3.44045L39.8226 5.18855L38.7118 4.70298L39.4523 2.96104C39.5797 2.6636 39.9318 2.52407 40.2353 2.65756C40.5388 2.78488 40.6784 3.13696 40.557 3.44045Z" fill="#C64756"/>
</svg>
