<svg width="61" height="62" viewBox="0 0 61 62" fill="none" xmlns="http://www.w3.org/2000/svg">
<path d="M49.1141 4.94343C49.6052 4.94343 50.0032 4.54547 50.0032 4.05432V1.41059C50.0032 0.919449 49.6052 0.521484 49.1141 0.521484C48.6229 0.521484 48.2249 0.919449 48.2249 1.41059V4.0542C48.2248 4.54535 48.6229 4.94343 49.1141 4.94343Z" fill="#C64756"/>
<path d="M39.9254 7.03474C40.0989 7.20841 40.3266 7.29519 40.5542 7.29519C40.7817 7.29519 41.0092 7.20841 41.1828 7.03486C41.5301 6.68775 41.5302 6.12477 41.1829 5.77742L39.3136 3.90745C38.9665 3.56023 38.4035 3.56011 38.0561 3.90733C37.7089 4.25444 37.7088 4.81742 38.056 5.16477L39.9254 7.03474Z" fill="#C64756"/>
<path d="M60.1718 3.90751C59.8243 3.55993 59.2614 3.56028 58.9144 3.90763L57.045 5.7776C56.6978 6.12494 56.6979 6.68793 57.0451 7.03504C57.2188 7.20871 57.4463 7.29537 57.6738 7.29537C57.9014 7.29537 58.129 7.20859 58.3026 7.03492L60.1719 5.16495C60.519 4.8176 60.519 4.25462 60.1718 3.90751Z" fill="#C64756"/>
<path d="M37.158 35.5645H15.1462C14.6551 35.5645 14.2571 35.9625 14.2571 36.4536C14.2571 36.9447 14.6551 37.3427 15.1462 37.3427H37.158C37.6492 37.3427 38.0471 36.9447 38.0471 36.4536C38.0471 35.9624 37.6492 35.5645 37.158 35.5645Z" fill="#C64756"/>
<path d="M31.5805 29.5269H15.1462C14.6551 29.5269 14.2571 29.9248 14.2571 30.416C14.2571 30.9071 14.6551 31.3051 15.1462 31.3051H31.5806C32.0717 31.3051 32.4697 30.9071 32.4697 30.416C32.4697 29.9248 32.0716 29.5269 31.5805 29.5269Z" fill="#C64756"/>
<path d="M37.158 41.5981H15.1462C14.6551 41.5981 14.2571 41.9961 14.2571 42.4873C14.2571 42.9784 14.6551 43.3764 15.1462 43.3764H37.158C37.6492 43.3764 38.0471 42.9783 38.0471 42.4873C38.0471 41.9961 37.6492 41.5981 37.158 41.5981Z" fill="#C64756"/>
<path d="M49.5327 7.81846C49.0408 7.81134 48.6353 8.19781 48.6258 8.6886C48.6152 9.17938 49.0052 9.586 49.496 9.59549C53.8409 9.68677 58.2271 12.4063 58.2331 18.278C58.2366 21.4089 56.8152 23.1232 55.3097 24.9394C54.0317 26.4817 52.7144 28.0726 52.2847 30.4941H49.9963V25.0751C51.5508 24.6782 52.7036 23.2659 52.7036 21.5893C52.7036 19.6058 51.0902 17.9921 49.1071 17.9921C47.1241 17.9921 45.5107 19.6059 45.5107 21.5893C45.5107 23.2659 46.6635 24.6782 48.2179 25.0751V30.4943H45.9301C45.5019 28.0715 44.1847 26.4815 42.9069 24.9383C41.5732 23.3296 40.3047 21.7991 40.038 19.2906C40.0024 18.9693 39.9847 18.6326 39.9847 18.2782C39.9847 17.932 40.0013 17.5941 40.0321 17.2634C40.3605 13.8113 42.3698 11.2387 45.6573 10.1231C46.122 9.96547 46.371 9.46046 46.2133 8.99457C46.0556 8.52986 45.5518 8.28091 45.0859 8.43858C41.348 9.70704 38.9154 12.6471 38.3392 16.4774C35.8426 15.452 33.1503 14.9138 30.3798 14.9138H28.2317C27.7409 14.9138 27.3426 15.3121 27.3426 15.8029C27.3426 16.2949 27.7409 16.692 28.2317 16.692H30.3798C33.1645 16.692 35.813 17.2859 38.2065 18.354C38.2266 22.0777 39.9847 24.1997 41.5366 26.0728C42.6681 27.4387 43.7442 28.7387 44.1373 30.5956C43.5259 30.8225 43.0882 31.41 43.0882 32.0994V34.9128C43.0882 35.7978 43.8082 36.5179 44.6931 36.5179H44.9543V37.8519C44.9543 39.5673 46.3496 40.9639 48.0651 40.9639H49.2186C47.3301 49.6299 39.6007 56.1394 30.3798 56.1394H17.7424C17.2789 56.1394 17.139 56.1726 16.6956 56.4002L9.78773 59.1956L9.73557 52.4098C9.78298 52.0755 9.66444 51.7625 9.40482 51.5432C5.06704 47.8552 2.57991 42.5014 2.57991 36.8537V35.9789C2.57991 25.3437 11.2281 16.692 21.8573 16.692H24.3137C24.8045 16.692 25.2028 16.2949 25.2028 15.8029C25.2028 15.3121 24.8045 14.9138 24.3137 14.9138H21.8573C16.2558 14.9138 10.9744 17.1116 6.98633 21.1021C2.99838 25.0924 0.801575 30.375 0.801575 35.9789V36.8537C0.801575 42.8951 3.40488 48.627 7.9596 52.6435L8.01413 59.8454C7.98924 60.4784 8.2619 60.8186 8.49781 60.9929C8.65548 61.1091 8.88783 61.2181 9.20791 61.2181C9.38692 61.2181 9.59319 61.1838 9.82791 61.0972C9.83621 61.0949 9.8457 61.0913 9.85518 61.0877L17.3997 58.0326C17.4246 58.0232 17.4483 58.0125 17.472 57.9995L17.5087 57.9817C17.5526 57.9591 17.5988 57.9342 17.6332 57.9177H30.3798C35.9825 57.9177 41.2651 55.721 45.253 51.7317C48.2821 48.7015 50.2772 44.9246 51.062 40.8275C52.3328 40.4363 53.2599 39.2496 53.2599 37.8519V36.5179H53.5209C54.406 36.5179 55.1259 35.7978 55.1259 34.9128V32.0994C55.1259 31.4102 54.6886 30.8228 54.0775 30.5957C54.4714 28.7386 55.5474 27.4396 56.6788 26.0739C58.2424 24.1878 60.0147 22.049 60.0112 18.2757C60.0043 11.241 54.5747 7.92396 49.5327 7.81846ZM47.289 21.5893C47.289 20.5863 48.1046 19.7703 49.1071 19.7703C50.1097 19.7703 50.9254 20.5863 50.9254 21.5893C50.9254 22.5923 50.1097 23.4083 49.1071 23.4083C48.1046 23.4083 47.289 22.5925 47.289 21.5893ZM51.4818 37.8519C51.4818 38.0286 51.4474 38.1981 51.3846 38.3522C51.1866 38.8406 50.7077 39.1856 50.1493 39.1856H48.0652C47.3302 39.1856 46.7328 38.5869 46.7328 37.8519V36.5183L51.438 36.518V36.5183H51.4819V37.8519H51.4818ZM53.3478 34.7397H44.8666V32.2725H53.3478V34.7397Z" fill="#C64756"/>
</svg>
