<svg width="41" height="51" viewBox="0 0 41 51" fill="none" xmlns="http://www.w3.org/2000/svg">
<path d="M40.3164 13.5301L27.3247 0.538421C27.2163 0.426203 27.0859 0.337467 26.9417 0.277717C26.7976 0.217967 26.6426 0.188477 26.4866 0.191076H5.26657C4.00893 0.191076 2.80281 0.690668 1.91353 1.57995C1.02425 2.46923 0.524658 3.67535 0.524658 4.93298V45.4763C0.524658 46.7339 1.02425 47.94 1.91353 48.8293C2.80281 49.7186 4.00893 50.2182 5.26657 50.2182H35.9218C37.1794 50.2182 38.3856 49.7186 39.2748 48.8293C40.1641 47.94 40.6637 46.7339 40.6637 45.4763V14.3682C40.6627 14.054 40.5379 13.7528 40.3164 13.5301ZM36.6165 13.1827H29.4503C28.9787 13.1827 28.5264 12.9954 28.1929 12.6619C27.8594 12.3284 27.6721 11.8761 27.6721 11.4045V4.23829L36.6165 13.1827ZM35.9218 47.8472H5.27012C4.64131 47.8472 4.03824 47.5975 3.5936 47.1528C3.14896 46.7082 2.89917 46.1051 2.89917 45.4763V4.93298C2.89917 4.30417 3.14896 3.70111 3.5936 3.25647C4.03824 2.81183 4.64131 2.56203 5.27012 2.56203H25.3047V11.4045C25.3047 12.5049 25.7418 13.5603 26.5199 14.3384C27.2981 15.1165 28.3534 15.5537 29.4538 15.5537H38.2963V45.4763C38.2963 45.788 38.2349 46.0965 38.1155 46.3844C37.9961 46.6723 37.8212 46.9339 37.6006 47.1541C37.3801 47.3743 37.1183 47.5488 36.8302 47.6678C36.5422 47.7867 36.2335 47.8477 35.9218 47.8472Z" fill="#C64756"/>
<path d="M15.8339 18.4476C16.7835 18.4476 17.7118 18.166 18.5013 17.6384C19.2909 17.1109 19.9062 16.361 20.2696 15.4837C20.633 14.6064 20.7281 13.6411 20.5429 12.7097C20.3576 11.7784 19.9003 10.9229 19.2289 10.2515C18.5574 9.57999 17.7019 9.12273 16.7706 8.93747C15.8393 8.75222 14.8739 8.84729 13.9966 9.21068C13.1193 9.57407 12.3695 10.1895 11.8419 10.979C11.3143 11.7686 11.0327 12.6968 11.0327 13.6464C11.0343 14.9193 11.5407 16.1396 12.4407 17.0396C13.3408 17.9397 14.5611 18.446 15.8339 18.4476ZM15.8339 11.2162C16.3146 11.2162 16.7844 11.3587 17.1841 11.6257C17.5837 11.8928 17.8952 12.2723 18.0792 12.7164C18.2631 13.1605 18.3112 13.6491 18.2175 14.1205C18.1237 14.5919 17.8922 15.025 17.5524 15.3648C17.2125 15.7047 16.7795 15.9362 16.308 16.0299C15.8366 16.1237 15.348 16.0756 14.9039 15.8916C14.4599 15.7077 14.0803 15.3962 13.8133 14.9966C13.5462 14.5969 13.4037 14.1271 13.4037 13.6464C13.4046 13.0022 13.661 12.3846 14.1165 11.929C14.5721 11.4735 15.1897 11.2171 15.8339 11.2162Z" fill="#C64756"/>
<path d="M8.88584 27.6344C9.20025 27.6344 9.50178 27.5095 9.7241 27.2872C9.94642 27.0648 10.0713 26.7633 10.0713 26.4489V25.7258C10.0729 24.561 10.5363 23.4445 11.3598 22.6209C12.1834 21.7973 13.3 21.3339 14.4647 21.3324H17.2031C18.3679 21.3339 19.4844 21.7973 20.308 22.6209C21.1316 23.4445 21.595 24.561 21.5965 25.7258V26.4489C21.5965 26.7633 21.7214 27.0648 21.9437 27.2872C22.1661 27.5095 22.4676 27.6344 22.782 27.6344C23.0964 27.6344 23.3979 27.5095 23.6203 27.2872C23.8426 27.0648 23.9675 26.7633 23.9675 26.4489V25.7258C23.9653 23.9324 23.2519 22.2132 21.9838 20.9451C20.7157 19.677 18.9965 18.9636 17.2031 18.9614H14.4647C12.6714 18.9636 10.9521 19.677 9.68401 20.9451C8.41593 22.2132 7.70256 23.9324 7.70036 25.7258V26.4489C7.70036 26.7633 7.82526 27.0648 8.04758 27.2872C8.2699 27.5095 8.57143 27.6344 8.88584 27.6344Z" fill="#C64756"/>
<path d="M8.22553 36.3085H22.6113C22.9257 36.3085 23.2272 36.1836 23.4496 35.9612C23.6719 35.7389 23.7968 35.4374 23.7968 35.123C23.7968 34.8086 23.6719 34.507 23.4496 34.2847C23.2272 34.0624 22.9257 33.9375 22.6113 33.9375H8.22553C7.91112 33.9375 7.60959 34.0624 7.38727 34.2847C7.16495 34.507 7.04005 34.8086 7.04005 35.123C7.04005 35.4374 7.16495 35.7389 7.38727 35.9612C7.60959 36.1836 7.91112 36.3085 8.22553 36.3085Z" fill="#C64756"/>
<path d="M30.7496 40.1812H8.22553C7.91112 40.1812 7.60959 40.3061 7.38727 40.5284C7.16495 40.7507 7.04005 41.0522 7.04005 41.3666C7.04005 41.681 7.16495 41.9826 7.38727 42.2049C7.60959 42.4272 7.91112 42.5521 8.22553 42.5521H30.7496C31.064 42.5521 31.3655 42.4272 31.5878 42.2049C31.8102 41.9826 31.9351 41.681 31.9351 41.3666C31.9351 41.0522 31.8102 40.7507 31.5878 40.5284C31.3655 40.3061 31.064 40.1812 30.7496 40.1812Z" fill="#C64756"/>
</svg>
